<svg width="43" height="43" viewBox="0 0 43 43" fill="none" xmlns="http://www.w3.org/2000/svg">
<path d="M2 15.3571C2 7.9802 7.9802 2 15.3571 2H21.1551C17.3754 4.57035 14.8929 8.90597 14.8929 13.8214C14.8929 21.7112 21.2888 28.1071 29.1786 28.1071C34.094 28.1071 38.4296 25.6246 41 21.8449V27.6429C41 35.0198 35.0198 41 27.6429 41H15.3571C7.9802 41 2 35.0198 2 27.6429V15.3571ZM18.8929 13.8214C18.8929 8.14079 23.4979 3.53571 29.1786 3.53571C34.8592 3.53571 39.4643 8.14079 39.4643 13.8214C39.4643 19.5021 34.8592 24.1071 29.1786 24.1071C23.4979 24.1071 18.8929 19.5021 18.8929 13.8214Z" stroke="#0073FF" stroke-width="4"/>
</svg>
